# xmcd
#
# Track frame offsets:
#	183
#	18070
#	31860
#	45158
#
# Disc length: 789 seconds
# Revision: 4
# Processed by: cddbd v1.5.2PL0 Copyright (c) Steve Scherf et al.
# Submitted via: dBpowerAMP V12.0
#
DISCID=1a031304
DTITLE=Finn / Suffer Never
DYEAR=1995
DGENRE=Rock/Pop
TTITLE0=Suffer Never
TTITLE1=Prodigal Son (Demo)
TTITLE2=Catherine Wheel (Demo)
TTITLE3=Weather with You (Demo)
EXTD=
EXTT0=
EXTT1=
EXTT2=
EXTT3=
PLAYORDER=
